<svg xmlns="http://www.w3.org/2000/svg" width="25" height="30" viewBox="0 0 25 30"><defs><style>.a{fill:#fff;opacity:0.2;}</style></defs><path class="a" d="M24.66,25.937,19.791,20.1a1.081,1.081,0,0,0-.83-.41h-.8a13.742,13.742,0,0,0,2.149-7.5C20.314,5.455,15.768,0,10.157,0S0,5.455,0,12.186,4.546,24.373,10.157,24.373a9.1,9.1,0,0,0,6.25-2.578v.955a1.56,1.56,0,0,0,.342,1l4.869,5.841a1.036,1.036,0,0,0,1.655,0l1.382-1.658a1.62,1.62,0,0,0,0-1.992Zm-14.5-6.251c-3.452,0-6.25-3.351-6.25-7.5s2.793-7.5,6.25-7.5,6.25,3.351,6.25,7.5S13.614,19.686,10.157,19.686Z"/></svg>