<svg xmlns="http://www.w3.org/2000/svg" xmlns:xlink="http://www.w3.org/1999/xlink" width="120" height="45" viewBox="0 0 120 45"><defs><style>.a{fill:url(#a);}</style><linearGradient id="a" x1="0.5" x2="0.5" y2="1" gradientUnits="objectBoundingBox"><stop offset="0" stop-color="#55d8fe"/><stop offset="1" stop-color="#54d8ff" stop-opacity="0.502"/></linearGradient></defs><path class="a" d="M113.571,45V24.75H120V45Zm-9.643,0V11.25H112.5V45Zm-9.643,0V22.5h8.571V45Zm-9.644,0V30.375h8.572V45ZM75,45V16.875h8.572V45Zm-9.643,0V5.625h8.572V45Zm-9.643,0V16.875h8.571V45Zm-9.643,0V22.5h8.572V45Zm-9.643,0V0H45V45Zm-9.643,0V11.25h8.572V45Zm-7.5,0V24.75h6.428V45ZM9.643,45V11.25h8.572V45ZM0,45V22.5H8.572V45Z"/></svg>