<svg xmlns="http://www.w3.org/2000/svg" width="20" height="20" viewBox="0 0 20 20"><defs><style>.a{fill:#fff;}</style></defs><path class="a" d="M16.25,20A1.181,1.181,0,0,1,15,18.75V7.5A1.181,1.181,0,0,1,16.25,6.25h2.5A1.181,1.181,0,0,1,20,7.5V18.75A1.181,1.181,0,0,1,18.75,20Zm-7.5,0A1.18,1.18,0,0,1,7.5,18.75V1.25A1.181,1.181,0,0,1,8.75,0h2.5A1.181,1.181,0,0,1,12.5,1.25v17.5A1.18,1.18,0,0,1,11.25,20Zm-7.5,0A1.181,1.181,0,0,1,0,18.75v-5A1.182,1.182,0,0,1,1.25,12.5h2.5A1.182,1.182,0,0,1,5,13.751v5A1.181,1.181,0,0,1,3.75,20Z"/></svg>