<svg xmlns="http://www.w3.org/2000/svg" width="20" height="20" viewBox="0 0 20 20"><defs><style>.a{fill:#fff;}</style></defs><path class="a" d="M0,20c0-4.125,3.857-7.5,8.571-7.5h2.857C16.143,12.5,20,15.875,20,20Zm3.713-2.5H16.428a5.958,5.958,0,0,0-5-2.5H8.714A5.961,5.961,0,0,0,3.713,17.5Zm.572-11.25V5C4.285,2.25,6.857,0,10,0s5.715,2.25,5.715,5v1.25c0,2.751-2.572,5-5.715,5S4.285,9,4.285,6.249ZM7.142,5v1.25A2.7,2.7,0,0,0,10,8.75a2.7,2.7,0,0,0,2.858-2.5V5A2.7,2.7,0,0,0,10,2.5,2.7,2.7,0,0,0,7.142,5Z"/></svg>