<svg xmlns="http://www.w3.org/2000/svg" width="40" height="40" viewBox="0 0 40 40"><defs><style>.a{fill:#fff;}</style></defs><path class="a" d="M38.16,59.713a14.9,14.9,0,0,0,0-3.8l1.613-1.331a.789.789,0,0,0,.206-.759A15.51,15.51,0,0,0,37.9,48.693a.365.365,0,0,0-.563-.125L35.729,49.9A7.277,7.277,0,0,0,33.422,48V45.335a.641.641,0,0,0-.356-.634,6.684,6.684,0,0,0-4.138,0,.641.641,0,0,0-.356.634V48a7.277,7.277,0,0,0-2.306,1.9l-1.613-1.331a.365.365,0,0,0-.563.125,15.51,15.51,0,0,0-2.075,5.126.8.8,0,0,0,.206.759l1.613,1.331a14.9,14.9,0,0,0,0,3.8l-1.613,1.331a.789.789,0,0,0-.206.759,15.588,15.588,0,0,0,2.075,5.126.365.365,0,0,0,.563.125l1.613-1.331a7.277,7.277,0,0,0,2.306,1.9v2.661a.642.642,0,0,0,.356.634,6.685,6.685,0,0,0,4.138,0,.642.642,0,0,0,.356-.634V67.626a7.277,7.277,0,0,0,2.307-1.9l1.613,1.331a.365.365,0,0,0,.563-.125A15.509,15.509,0,0,0,39.979,61.8a.8.8,0,0,0-.206-.759ZM31,62.142c-1.675,0-3.032-1.947-3.032-4.331S29.334,53.48,31,53.48s3.032,1.947,3.032,4.331S32.678,62.142,31,62.142ZM6,49.238c2.206,0,4-2.563,4-5.716s-1.794-5.716-4-5.716S2,40.37,2,43.522,3.794,49.238,6,49.238ZM20,52.1c.119,0,.231-.045.35-.054a18.711,18.711,0,0,1,2.269-5.287,2.21,2.21,0,0,1,1.806-1.125,1.888,1.888,0,0,1,1.225.473l.494.411c.05-.045.1-.08.15-.125A13.479,13.479,0,0,0,27,42.1c0-5.528-3.132-10-7-10S13,36.565,13,42.093,16.133,52.1,20,52.1Zm6.576,17.37c-.144-.107-.288-.232-.425-.348a2.6,2.6,0,0,1-1.719.875,2.226,2.226,0,0,1-1.806-1.125,18.861,18.861,0,0,1-2.513-6.216,4.143,4.143,0,0,1,1.613-4.492q-.009-.348,0-.7l-.494-.411a3.024,3.024,0,0,1-.613-.723c-.206.018-.406.054-.613.054a7.551,7.551,0,0,1-4.282-1.429h-.519C11.226,54.953,8,59.561,8,65.241v2.572C8,70.18,9.345,72.1,11,72.1H26.965a4.55,4.55,0,0,1-.388-1.813ZM10.82,53.757A3.515,3.515,0,0,0,8,52.1H4c-2.206,0-4,2.563-4,5.716v2.858c0,1.581.894,2.858,2,2.858H6.119C6.513,59.294,8.3,55.73,10.82,53.757Z" transform="translate(0 -32.1)"/></svg>