<svg xmlns="http://www.w3.org/2000/svg" width="40" height="40" viewBox="0 0 40 40"><defs><style>.a{fill:#fafafa;}</style></defs><path class="a" d="M39.415,28.509l-5.644-7.047A3.644,3.644,0,0,0,30.939,20H25.983a2.29,2.29,0,0,0-2,2.5v6.188a5.678,5.678,0,0,0,1.169,3.531L30.8,39.268a1.734,1.734,0,0,0,2.831,0l5.782-7.227a2.944,2.944,0,0,0,.006-3.531ZM27.989,26.868a1.715,1.715,0,0,1-1.5-1.875,1.715,1.715,0,0,1,1.5-1.875,1.715,1.715,0,0,1,1.5,1.875A1.72,1.72,0,0,1,27.989,26.868ZM14,19.993c4.419,0,8-4.477,8-10S18.42,0,14,0,6,4.477,6,10s3.581,9.993,8,9.993Zm7.988,8.688V22.97a6.893,6.893,0,0,0-2.388-.484H18.557a8.929,8.929,0,0,1-9.113,0H8.4C3.763,22.493,0,27.2,0,32.994v3.25c0,2.07,1.344,3.75,3,3.75H25a2.839,2.839,0,0,0,2.369-1.477l-3.625-4.531a8.487,8.487,0,0,1-1.756-5.3Z"/></svg>