<svg xmlns="http://www.w3.org/2000/svg" width="11.644" height="12.357" viewBox="0 0 11.644 12.357"><defs><style>.a{fill:#ff9100;}</style></defs><g transform="translate(-2.577 -2)"><path class="a" d="M10.471,12.943A2.471,2.471,0,1,0,8,10.471,2.474,2.474,0,0,0,10.471,12.943Zm0-3.707a1.236,1.236,0,1,1-1.236,1.236A1.252,1.252,0,0,1,10.471,9.236Z" transform="translate(-2.073 -2.293)"/><path class="a" d="M2.743,10.734,3.36,11.8a1.27,1.27,0,0,0,1.687.451l.327-.189a5,5,0,0,0,1.171.687v.369a1.237,1.237,0,0,0,1.236,1.236H9.017a1.237,1.237,0,0,0,1.236-1.236v-.369a5.024,5.024,0,0,0,1.171-.686l.327.189a1.271,1.271,0,0,0,1.687-.452l.617-1.068A1.236,1.236,0,0,0,13.6,9.046l-.312-.18a4.741,4.741,0,0,0,0-1.374l.312-.18a1.237,1.237,0,0,0,.452-1.688l-.617-1.068A1.268,1.268,0,0,0,11.751,4.1l-.327.189a5,5,0,0,0-1.171-.687V3.236A1.237,1.237,0,0,0,9.017,2H7.781A1.237,1.237,0,0,0,6.545,3.236v.369a5.024,5.024,0,0,0-1.171.686L5.047,4.1a1.27,1.27,0,0,0-1.687.452L2.743,5.623a1.236,1.236,0,0,0,.452,1.688l.312.18a4.737,4.737,0,0,0,0,1.373l-.312.18A1.237,1.237,0,0,0,2.743,10.734ZM4.8,9.03a3.493,3.493,0,0,1,0-1.7.617.617,0,0,0-.29-.685l-.694-.4.617-1.068.707.409a.616.616,0,0,0,.734-.088A3.751,3.751,0,0,1,7.344,4.63a.617.617,0,0,0,.437-.591v-.8H9.017v.8a.617.617,0,0,0,.437.591,3.758,3.758,0,0,1,1.473.864.617.617,0,0,0,.734.088l.707-.408.618,1.068-.694.4a.618.618,0,0,0-.29.685,3.493,3.493,0,0,1,0,1.7.618.618,0,0,0,.291.685l.694.4-.617,1.068-.707-.408a.615.615,0,0,0-.734.088,3.751,3.751,0,0,1-1.473.864.617.617,0,0,0-.437.591v.8H7.781v-.8a.617.617,0,0,0-.437-.591,3.758,3.758,0,0,1-1.473-.864.617.617,0,0,0-.734-.087l-.707.409-.618-1.068.694-.4A.618.618,0,0,0,4.8,9.03Z"/></g></svg>